<svg width="17" height="13" viewBox="0 0 17 13" fill="none" xmlns="http://www.w3.org/2000/svg">
<g id="Header / Arrow Icon">
<path id="Vector" d="M0.749268 6.66537C0.749268 7.05344 1.06381 7.36799 1.45188 7.36799H14.3718L9.93962 11.7961C9.80482 11.9309 9.73538 12.1106 9.73538 12.2904C9.73538 12.4701 9.80482 12.6498 9.93962 12.7847C10.2133 13.0583 10.6586 13.0583 10.9323 12.7847L16.5532 7.15965C16.8146 6.89821 16.8146 6.43253 16.5532 6.16701L10.9282 0.54609C10.6545 0.272397 10.2092 0.272397 9.93554 0.54609C9.66185 0.819783 9.66185 1.26504 9.93554 1.53874L14.3636 5.96684H1.4478C1.05972 5.96276 0.749268 6.2773 0.749268 6.66537Z" fill="#00730C"/>
</g>
</svg>
