<svg width="25" height="26" viewBox="0 0 25 26" fill="none" xmlns="http://www.w3.org/2000/svg">
<path d="M3 12.4057C3 12.8908 3.39318 13.284 3.87827 13.284H20.0282L14.4879 18.8191C14.3194 18.9876 14.2326 19.2123 14.2326 19.4369C14.2326 19.6616 14.3194 19.8863 14.4879 20.0548C14.8301 20.3969 15.3866 20.3969 15.7288 20.0548L22.7549 13.0235C23.0817 12.6967 23.0817 12.1146 22.7549 11.7827L15.7237 4.75659C15.3815 4.41447 14.825 4.41447 14.4828 4.75659C14.1407 5.0987 14.1407 5.65528 14.4828 5.9974L20.018 11.5325H3.87316C3.38807 11.5274 3 11.9206 3 12.4057Z" fill="#212529"/>
</svg>
