<svg width="31" height="30" viewBox="0 0 31 30" fill="none" xmlns="http://www.w3.org/2000/svg">
<g id="Navbar / phone" clip-path="url(#clip0_673_46937)">
<g id="Group">
<path id="Vector" d="M17.2578 8.84766C17.7432 8.84766 18.1367 8.45416 18.1367 7.96875C18.1367 7.48334 17.7432 7.08984 17.2578 7.08984C16.7724 7.08984 16.3789 7.48334 16.3789 7.96875C16.3789 8.45416 16.7724 8.84766 17.2578 8.84766Z" fill="#00730C"/>
<path id="Vector_2" d="M20.7734 8.84766C21.2588 8.84766 21.6523 8.45416 21.6523 7.96875C21.6523 7.48334 21.2588 7.08984 20.7734 7.08984C20.288 7.08984 19.8945 7.48334 19.8945 7.96875C19.8945 8.45416 20.288 8.84766 20.7734 8.84766Z" fill="#00730C"/>
<path id="Vector_3" d="M24.2891 8.84766C24.7745 8.84766 25.168 8.45416 25.168 7.96875C25.168 7.48334 24.7745 7.08984 24.2891 7.08984C23.8037 7.08984 23.4102 7.48334 23.4102 7.96875C23.4102 8.45416 23.8037 8.84766 24.2891 8.84766Z" fill="#00730C"/>
<path id="Vector_4" d="M20.2586 28.1836C21.7055 28.1836 22.8828 27.0008 22.8828 25.5469V22.0312C22.8828 21.6531 22.641 21.3175 22.2825 21.1976L17.0215 19.4398C16.7639 19.3538 16.4813 19.3916 16.2554 19.5421L14.0182 21.0336C11.6171 19.8943 8.77924 17.0816 7.65049 14.7232L9.14147 12.4867C9.29199 12.2609 9.32979 11.9781 9.24377 11.7207L7.48596 6.45973C7.36613 6.10113 7.03045 5.85938 6.65234 5.85938H3.13672C1.68283 5.85938 0.5 7.03658 0.5 8.48361C0.5 13.3397 2.70805 18.3236 6.55801 22.1575C10.4038 25.9871 15.3975 28.1836 20.2586 28.1836ZM3.13672 7.61719H6.01936L7.44025 11.8697L5.92109 14.1484C5.76055 14.3892 5.72885 14.6936 5.83637 14.9623C6.42084 16.4235 7.59049 18.0669 9.1298 19.5898C10.659 21.1026 12.3104 22.2595 13.7799 22.8472C14.0485 22.9547 14.353 22.923 14.5938 22.7625L16.8726 21.2433L21.125 22.6642V25.5469C21.125 26.0397 20.7444 26.4258 20.2586 26.4258C11.0059 26.4258 2.25781 17.7062 2.25781 8.48361C2.25781 7.99775 2.64389 7.61719 3.13672 7.61719Z" fill="#00730C"/>
<path id="Vector_5" d="M16.9215 17.5698C17.2498 17.7059 17.6279 17.6306 17.8793 17.3793L21.1375 14.1211H24.2891C27.7138 14.1211 30.5 11.3612 30.5 7.96875C30.5 4.57635 27.7138 1.81641 24.2891 1.81641H17.2578C13.8654 1.81641 11.1055 4.57635 11.1055 7.96875C11.1055 11.0628 13.4013 13.6307 16.3789 14.0585V16.7578C16.3789 17.1133 16.5931 17.4337 16.9215 17.5698ZM12.8633 7.96875C12.8633 5.54561 14.8347 3.57422 17.2578 3.57422H24.2891C26.7445 3.57422 28.7422 5.54561 28.7422 7.96875C28.7422 10.3919 26.7445 12.3633 24.2891 12.3633H20.7734C20.5403 12.3633 20.3168 12.4559 20.152 12.6207L18.1367 14.636V13.2422C18.1367 12.7568 17.7432 12.3633 17.2578 12.3633C14.8347 12.3633 12.8633 10.3919 12.8633 7.96875Z" fill="#00730C"/>
</g>
</g>
<defs>
<clipPath id="clip0_673_46937">
<rect width="30" height="30" fill="white" transform="translate(0.5)"/>
</clipPath>
</defs>
</svg>
