<svg width="112" height="112" viewBox="0 0 112 112" fill="none" xmlns="http://www.w3.org/2000/svg">
<g clip-path="url(#clip0_12326_1150)">
<path opacity="0.3" d="M76.9261 37.6989C66.133 44.2642 64.9222 58.341 65.3527 67.2548C73.5619 57.6049 83.6774 52.4916 89.4534 51.5273C80.1658 55.1659 73.168 62.4106 67.3477 70.4095C64.9996 74.5253 62.8385 78.5524 61.6125 82.9975C60.2728 77.7922 57.9865 72.9257 55.5199 67.9525C48.5921 57.1575 40.0774 47.2514 28.3308 41.8402C35.7339 43.5242 48.4449 50.907 58.3401 64.0193C59.5731 52.5139 59.0652 34.1983 45.5921 24.8869C30.7682 14.643 12.0562 11.1478 2.81502 9.99695C0.715144 9.73564 -0.744453 12.0399 0.402742 13.8182C3.42853 18.5092 7.5379 26.8613 8.14404 38.2679C8.74747 49.6684 9.44718 70.734 50.1533 73.8811C56.1997 84.9308 59.1774 90.8218 60.2782 101.381C60.3617 102.182 61.4939 102.258 61.6857 101.475C62.435 98.4177 64.4055 83.0402 71.2132 75.2156C102.698 74.621 104.182 58.4333 105.161 49.6831C106.056 41.6547 109.106 35.7368 111.564 32.1299C112.741 30.4038 111.384 28.0809 109.302 28.2467C101.794 28.8445 88.1571 30.8695 76.9261 37.6989Z" fill="#FBEEE7"/>
</g>
<defs>
<clipPath id="clip0_12326_1150">
<rect width="112" height="112" fill="white"/>
</clipPath>
</defs>
</svg>
