<svg width="25" height="21" viewBox="0 0 25 21" fill="none" xmlns="http://www.w3.org/2000/svg">
<path d="M12.3139 19.5067C12.3015 20.0454 11.8013 20.436 11.3011 20.3456C11.9877 20.4704 13.5854 20.6451 14.4841 20.3456C13.9633 20.4237 13.4879 20.0289 13.4755 19.5026C13.4755 19.5314 13.1241 16.7393 14.5296 14.157C15.7325 11.9489 16.4022 12.1791 17.8118 11.6446C19.6183 10.9579 21.4743 10.2506 22.7475 8.70862C24.8268 6.18796 24.277 2.73389 24.0992 1.80047C21.867 4.98726 19.6059 4.08262 17.3282 5.53416C15.0133 7.01036 13.9798 9.33775 14.203 11.8296C16.4973 7.84099 19.395 9.59681 22.3879 5.60817C21.6603 6.80888 20.6641 7.85332 19.424 8.59759C17.6423 9.68316 16.7825 9.36654 14.0832 13.2647C13.5871 13.9802 13.1861 14.7615 12.8968 15.5798C12.5619 14.634 12.0783 13.7253 11.4665 12.9275C10.2388 11.3362 9.69725 10.4357 8.62248 9.66671C7.15086 8.60582 4.64581 8.19873 2.6244 4.85157C5.99754 9.3542 9.15986 7.2982 11.7311 11.7762C11.9873 8.93889 10.7803 6.38534 8.25457 4.77344C5.72058 3.15742 3.20726 4.16486 0.722874 0.616211C0.524454 1.65655 -0.0873394 5.50126 2.22756 8.30564C3.64065 10.0186 5.69426 10.8004 7.69683 11.5628L7.71719 11.5706C8.68035 11.9365 11.1565 12.0476 12.1238 16.4351C12.3883 17.6522 12.3429 18.3554 12.3139 19.5067Z" fill="#00730C"/>
</svg>
